<svg xmlns="http://www.w3.org/2000/svg" viewBox="16 42 714 594" role="img" aria-label="Auths logo">
  <defs>
    <linearGradient id="auths-g" gradientUnits="userSpaceOnUse" x1="150" y1="180" x2="690" y2="560">
      <stop offset="0" stop-color="#58C287"/>
      <stop offset="0.55" stop-color="#4B9078"/>
      <stop offset="1" stop-color="#3E4A5E"/>
    </linearGradient>
  </defs>
  <g stroke="url(#auths-g)" stroke-width="10" stroke-linecap="round" fill="none">
    <path d="M296 83 L373 157"/>
    <path d="M450 83 L373 157"/>
    <path d="M296 83 L59 585"/>
    <path d="M450 83 L687 585"/>
    <path d="M296 83 L243 396"/>
    <path d="M450 83 L503 396"/>
    <path d="M220.5 243 L243 396"/>
    <path d="M525.5 243 L503 396"/>
    <path d="M161 369 L243 396"/>
    <path d="M585 369 L503 396"/>
    <path d="M161 369 L167 505"/>
    <path d="M585 369 L579 505"/>
    <path d="M243 396 L167 505"/>
    <path d="M503 396 L579 505"/>
    <path d="M243 396 L300 469"/>
    <path d="M503 396 L446 469"/>
    <path d="M300 469 L167 505"/>
    <path d="M446 469 L579 505"/>
    <path d="M167 505 L59 585"/>
    <path d="M579 505 L687 585"/>
    <path d="M300 469 L238 586"/>
    <path d="M446 469 L508 586"/>
    <path d="M167 505 L238 586"/>
    <path d="M579 505 L508 586"/>
    <path d="M59 585 L238 586"/>
    <path d="M687 585 L508 586"/>
    <path d="M373 248 L332 267"/>
    <path d="M373 248 L414 267"/>
    <path d="M332 267 L301 322"/>
    <path d="M414 267 L445 322"/>
    <path d="M220.5 243 L301 322"/>
    <path d="M525.5 243 L445 322"/>
    <path d="M296 83 L450 83"/>
    <path d="M373 157 L373 248"/>
    <path d="M300 469 L446 469"/>
    <path d="M348.5 358.6 L300 469"/>
    <path d="M397.5 358.6 L446 469"/>
    <path d="M348.5 358.6 A58 58 0 1 1 397.5 358.6"/>
  </g>
  <g fill="url(#auths-g)">
    <circle cx="373" cy="157" r="23"/>
    <circle cx="296" cy="83" r="23"/>
    <circle cx="450" cy="83" r="23"/>
    <circle cx="220.5" cy="243" r="23"/>
    <circle cx="525.5" cy="243" r="23"/>
    <circle cx="161" cy="369" r="23"/>
    <circle cx="585" cy="369" r="23"/>
    <circle cx="243" cy="396" r="23"/>
    <circle cx="503" cy="396" r="23"/>
    <circle cx="300" cy="469" r="23"/>
    <circle cx="446" cy="469" r="23"/>
    <circle cx="167" cy="505" r="23"/>
    <circle cx="579" cy="505" r="23"/>
    <circle cx="59" cy="585" r="23"/>
    <circle cx="687" cy="585" r="23"/>
    <circle cx="238" cy="586" r="23"/>
    <circle cx="508" cy="586" r="23"/>
  </g>
</svg>
