<svg width="242" height="242" viewBox="0 0 242 242" fill="none" xmlns="http://www.w3.org/2000/svg">
<g clip-path="url(#clip0_512_166)">
<path d="M66.3434 88.2063H110.069V110.069L88.2061 110.069V131.931H66.3434V88.2063Z" fill="#F4F4F4"/>
<path d="M153.794 88.2063H197.519V110.069H175.657V131.931H153.794V88.2063Z" fill="#F4F4F4"/>
<path d="M88.2061 110.069H110.069V131.931H88.2061V110.069Z" fill="#FF55FF"/>
<path d="M175.657 110.069H197.519V131.931H175.657V110.069Z" fill="#FF55FF"/>
<path d="M110.069 44.4807H88.2061V66.3433H110.069V44.4807Z" fill="#3333DD"/>
<path d="M153.794 44.4807H131.931V66.3433H153.794V44.4807Z" fill="#3333DD"/>
<path d="M197.519 197.519V153.794H241.244V131.931H0.755615V153.794H44.4808V197.519H66.3434V153.794H175.657L175.657 197.519H197.519Z" fill="#3333DD"/>
<path d="M44.4808 0.755615H66.3434V22.6182H44.4808V0.755615Z" fill="#5555FF"/>
<path d="M175.657 22.6182L153.794 22.6181V66.3433H131.931V44.4807H110.069V66.3433H88.2061V22.6181L66.3434 22.6182L66.3435 66.3433L44.4808 66.3437V88.2062H22.6183V131.931H66.3434V88.2063L110.069 88.2063L110.069 131.931H153.794V88.2063H197.519L197.519 131.931H219.382V88.2062L197.519 88.2063V66.3437L175.657 66.3433L175.657 22.6182Z" fill="#5555FF"/>
<path d="M175.657 22.6182V0.755615H197.519V22.6182H175.657Z" fill="#5555FF"/>
<path d="M66.3435 219.382L88.2061 219.382V153.794H110.069V241.244H66.3435V219.382Z" fill="#5555FF"/>
<path d="M131.931 241.244V153.794H153.794V219.382L175.657 219.382V241.244H131.931Z" fill="#5555FF"/>
</g>
<defs>
<clipPath id="clip0_512_166">
<rect width="240.489" height="240.489" fill="white" transform="translate(0.755615 0.755615)"/>
</clipPath>
</defs>
</svg>
